<?xml version="1.0" standalone="no"?><!DOCTYPE svg PUBLIC "-//W3C//DTD SVG 1.1//EN" "http://www.w3.org/Graphics/SVG/1.1/DTD/svg11.dtd"><svg t="1592457907496" class="icon" viewBox="0 0 1024 1024" version="1.1" xmlns="http://www.w3.org/2000/svg" p-id="2974" xmlns:xlink="http://www.w3.org/1999/xlink" width="200" height="200"><defs><style type="text/css"></style></defs><path d="M512 102.4C299.52 102.4 128 273.92 128 486.4s171.52 384 384 384 384-171.52 384-384S724.48 102.4 512 102.4z m25.6 716.8v-128c0-15.36-10.24-25.6-25.6-25.6s-25.6 10.24-25.6 25.6v128c-163.84-12.8-294.4-143.36-307.2-307.2h128c15.36 0 25.6-10.24 25.6-25.6s-10.24-25.6-25.6-25.6H179.2c12.8-163.84 143.36-294.4 307.2-304.64V281.6c0 15.36 10.24 25.6 25.6 25.6s25.6-10.24 25.6-25.6V156.16c163.84 12.8 294.4 143.36 307.2 304.64h-128c-15.36 0-25.6 10.24-25.6 25.6s10.24 25.6 25.6 25.6h128c-12.8 163.84-143.36 294.4-307.2 307.2z" p-id="2975"></path></svg>