<?xml version="1.0" standalone="no"?><!DOCTYPE svg PUBLIC "-//W3C//DTD SVG 1.1//EN" "http://www.w3.org/Graphics/SVG/1.1/DTD/svg11.dtd"><svg t="1592457927924" class="icon" viewBox="0 0 1024 1024" version="1.1" xmlns="http://www.w3.org/2000/svg" p-id="3100" xmlns:xlink="http://www.w3.org/1999/xlink" width="200" height="200"><defs><style type="text/css"></style></defs><path d="M665.6 486.4h-128v-128c0-15.36-10.24-25.6-25.6-25.6s-25.6 10.24-25.6 25.6v128h-128c-15.36 0-25.6 10.24-25.6 25.6s10.24 25.6 25.6 25.6h128v128c0 15.36 10.24 25.6 25.6 25.6s25.6-10.24 25.6-25.6v-128h128c15.36 0 25.6-10.24 25.6-25.6 0-12.8-10.24-25.6-25.6-25.6zM512 102.4C286.72 102.4 102.4 286.72 102.4 512s184.32 409.6 409.6 409.6 409.6-184.32 409.6-409.6S737.28 102.4 512 102.4z m0 768c-197.12 0-358.4-161.28-358.4-358.4S314.88 153.6 512 153.6s358.4 161.28 358.4 358.4-161.28 358.4-358.4 358.4z" p-id="3101"></path></svg>