<?xml version="1.0" standalone="no"?><!DOCTYPE svg PUBLIC "-//W3C//DTD SVG 1.1//EN" "http://www.w3.org/Graphics/SVG/1.1/DTD/svg11.dtd"><svg t="1592462474898" class="icon" viewBox="0 0 1024 1024" version="1.1" xmlns="http://www.w3.org/2000/svg" p-id="4530" xmlns:xlink="http://www.w3.org/1999/xlink" width="200" height="200"><defs><style type="text/css"></style></defs><path d="M763.14 513.57h-48v-32h48v32z m-92.8 0h-48v-32h48v32z m-92.79 0h-48v-32h48v32z m-92.8 0h-48v-32h48v32z m-92.8 0h-48v-32h48v32z m-92.8 0h-48.01v-32h48.01v32zM523.25 753.46h-32v-48h32v48z m0-92.8h-32v-48h32v48z m0-92.8h-32v-48h32v48z m0-92.81h-32v-48h32v48z m0-92.79h-32v-48h32v48z m0-92.8h-32v-48h32v48z" p-id="4531"></path><path d="M569.67 737.57H286.59c-1.84 0-3.34-1.5-3.34-3.34V260.9c0-1.83 1.5-3.33 3.34-3.33H727.9c1.84 0 3.34 1.5 3.34 3.33v306.6h32V260.9c0-19.48-15.86-35.33-35.34-35.33H286.59c-19.49 0-35.34 15.84-35.34 35.33v473.33c0 19.48 15.85 35.34 35.34 35.34h283.08v-32z" p-id="4532"></path><path d="M844.9 700.8c1 3 1 5 0 8 0 0-1 3-2 4-1 3-3 6-5 10-5 8-12.01 18.01-22.01 29.01-19.01 21.01-49.02 43.02-90.04 43.02s-71.03-22.01-90.04-43.02c-10-11.01-17.01-21.01-22.01-29.01l-5-10c-1-1-2-4-2-4-1-2-1-5 0-8 0 0 1-3 2-4 1-3 3-6 5-10 5-8 12.01-18.01 22.01-29.01 19.01-21.01 49.02-43.02 90.04-43.02s71.03 22.01 90.04 43.02c10 11.01 17.01 21.01 22.01 29.01l5 10c1 1 2 4 2 4z m-119.05-32.02c18.01 0 34.02 16.01 34.02 36.02s-16.01 36.02-34.02 36.02-34.02-16.01-34.02-36.02 16.01-36.02 34.02-36.02z m-55.98 36.02c0 31.1 24.88 58.04 55.97 58.04 31.1 0 55.97-26.95 55.97-58.04s-24.88-58.04-55.97-58.04-55.97 26.95-55.97 58.04z" p-id="4533"></path></svg>