<?xml version="1.0" standalone="no"?><!DOCTYPE svg PUBLIC "-//W3C//DTD SVG 1.1//EN" "http://www.w3.org/Graphics/SVG/1.1/DTD/svg11.dtd"><svg t="1592466992330" class="icon" viewBox="0 0 1024 1024" version="1.1" xmlns="http://www.w3.org/2000/svg" p-id="3856" xmlns:xlink="http://www.w3.org/1999/xlink" width="200" height="200"><defs><style type="text/css"></style></defs><path d="M832 102.4s-148.48 40.96-281.6 76.8h-51.2c-128-33.28-281.6-76.8-281.6-76.8-56.32 0-102.4 46.08-102.4 102.4v537.6c0 56.32 48.64 84.48 102.4 102.4 0 0 138.24 38.4 281.6 76.8h51.2c143.36-38.4 281.6-76.8 281.6-76.8 53.76-12.8 102.4-46.08 102.4-102.4V204.8c0-56.32-46.08-102.4-102.4-102.4z m-332.8 768l-281.6-76.8c-28.16-7.68-51.2-23.04-51.2-51.2V204.8c0-28.16 23.04-51.2 51.2-51.2l281.6 76.8v640z m384-128c0 28.16-23.04 43.52-51.2 51.2 0 0-138.24 38.4-281.6 76.8V230.4l281.6-76.8c28.16 0 51.2 23.04 51.2 51.2v537.6z" p-id="3857"></path></svg>