<?xml version="1.0" standalone="no"?><!DOCTYPE svg PUBLIC "-//W3C//DTD SVG 1.1//EN" "http://www.w3.org/Graphics/SVG/1.1/DTD/svg11.dtd"><svg t="1592560080132" class="icon" viewBox="0 0 1024 1024" version="1.1" xmlns="http://www.w3.org/2000/svg" p-id="4234" xmlns:xlink="http://www.w3.org/1999/xlink" width="200" height="200"><defs><style type="text/css"></style></defs><path d="M532.48 314.88c-5.12-5.12-12.8-7.68-20.48-7.68-7.68 0-15.36 2.56-20.48 7.68l-151.04 151.04c-10.24 10.24-10.24 25.6 0 35.84 10.24 10.24 25.6 10.24 35.84 0l110.08-107.52V640c0 15.36 10.24 25.6 25.6 25.6s25.6-10.24 25.6-25.6v-245.76l110.08 110.08c10.24 10.24 25.6 10.24 35.84 0 10.24-10.24 10.24-25.6 0-35.84l-151.04-153.6z m161.28-33.28c-38.4-76.8-115.2-128-207.36-128-120.32 0-220.16 94.72-230.4 212.48-89.6 25.6-153.6 102.4-153.6 197.12 0 110.08 89.6 197.12 204.8 204.8h435.2c87.04-38.4 179.2-143.36 179.2-243.2 0-130.56-99.84-235.52-227.84-243.2zM742.4 716.8H307.2s-153.6-15.36-153.6-153.6c0-76.8 69.12-148.48 153.6-153.6 0-104.96 69.12-204.8 179.2-204.8 87.04 0 145.92 53.76 166.4 128 128-5.12 212.48 94.72 217.6 179.2 2.56 71.68-58.88 166.4-128 204.8z" p-id="4235"></path></svg>