<?xml version="1.0" standalone="no"?><!DOCTYPE svg PUBLIC "-//W3C//DTD SVG 1.1//EN" "http://www.w3.org/Graphics/SVG/1.1/DTD/svg11.dtd"><svg t="1592559979101" class="icon" viewBox="0 0 1024 1024" version="1.1" xmlns="http://www.w3.org/2000/svg" p-id="3982" xmlns:xlink="http://www.w3.org/1999/xlink" width="200" height="200"><defs><style type="text/css"></style></defs><path d="M320 204.8c-56.32 0-102.4 46.08-102.4 102.4s46.08 102.4 102.4 102.4 102.4-46.08 102.4-102.4-46.08-102.4-102.4-102.4z m0 153.6c-28.16 0-51.2-23.04-51.2-51.2s23.04-51.2 51.2-51.2 51.2 23.04 51.2 51.2-23.04 51.2-51.2 51.2z m512-256h-614.4c-56.32 0-102.4 46.08-102.4 102.4v614.4c0 56.32 46.08 102.4 102.4 102.4h614.4c56.32 0 102.4-46.08 102.4-102.4V204.8c0-56.32-46.08-102.4-102.4-102.4z m-614.4 768c-28.16 0-51.2-23.04-51.2-51.2v-23.04l202.24-181.76 258.56 256h-409.6z m665.6-51.2c0 28.16-23.04 51.2-51.2 51.2h-133.12L512 678.4l217.6-217.6 153.6 153.6v204.8z m0-279.04l-153.6-156.16-253.44 258.56-104.96-104.96-204.8 186.88V204.8c0-28.16 23.04-51.2 51.2-51.2h614.4c28.16 0 51.2 23.04 51.2 51.2v335.36z" p-id="3983"></path></svg>