<?xml version="1.0" standalone="no"?><!DOCTYPE svg PUBLIC "-//W3C//DTD SVG 1.1//EN" "http://www.w3.org/Graphics/SVG/1.1/DTD/svg11.dtd"><svg t="1590658734661" class="icon" viewBox="0 0 1024 1024" version="1.1" xmlns="http://www.w3.org/2000/svg" p-id="6654" xmlns:xlink="http://www.w3.org/1999/xlink" width="200" height="200"><defs><style type="text/css"></style></defs><path d="M153.6 153.6h716.8c30.72 0 51.2 20.48 51.2 51.2s-20.48 51.2-51.2 51.2H153.6c-30.72 0-51.2-20.48-51.2-51.2s20.48-51.2 51.2-51.2zM153.6 460.8h716.8c30.72 0 51.2 20.48 51.2 51.2s-20.48 51.2-51.2 51.2H153.6c-30.72 0-51.2-20.48-51.2-51.2s20.48-51.2 51.2-51.2zM153.6 768h716.8c30.72 0 51.2 20.48 51.2 51.2s-20.48 51.2-51.2 51.2H153.6c-30.72 0-51.2-20.48-51.2-51.2s20.48-51.2 51.2-51.2z" p-id="6655"></path></svg>