<?xml version="1.0" standalone="no"?><!DOCTYPE svg PUBLIC "-//W3C//DTD SVG 1.1//EN" "http://www.w3.org/Graphics/SVG/1.1/DTD/svg11.dtd"><svg t="1590658650997" class="icon" viewBox="0 0 1024 1024" version="1.1" xmlns="http://www.w3.org/2000/svg" p-id="2582" xmlns:xlink="http://www.w3.org/1999/xlink" width="200" height="200"><defs><style type="text/css"></style></defs><path d="M779.5 588.2H501.4c-16.6 0-29.8 13.1-29.8 29.6 0 16.4 13.2 29.6 29.8 29.6h278.1c16.6 0 29.8-13.1 29.8-29.6 0-16.4-13.2-29.6-29.8-29.6zM779.5 469.9H501.4c-16.6 0-29.8 13.1-29.8 29.6 0 16.4 13.2 29.6 29.8 29.6h278.1c16.6 0 29.8-13.1 29.8-29.6 0-16.4-13.2-29.6-29.8-29.6z" p-id="2583"></path><path d="M881.1 242.5H535.6c-16.1-25-47.3-72.3-63.7-88.6-16.4-16.2-36.8-20.4-49.5-21.3v-0.2H142c-42.9 0-77.8 34.7-77.8 77.2v611c0 42.6 34.9 77.2 77.8 77.2h739c42.9 0 77.8-34.7 77.8-77.2v-501c0.1-42.5-34.8-77.1-77.7-77.1z m23.4 578.2c0 12.8-10.5 23.2-23.4 23.2H142c-12.9 0-23.4-10.4-23.4-23.2V319.8 209.6c0-12.8 10.5-23.2 23.4-23.2l126-0.1 95.6 0.2h49.6l0.9 0.1 1.5-0.2c1.5 0 11.8-0.1 17.7 5.7 7.5 7.5 22.5 28.4 37.2 50.4h0.7l41.6 54H881c12.9 0 23.4 10.4 23.4 23.2v501z" p-id="2584"></path><path d="M398.8 427.7H253.7c-21.7 0-39.3 17.5-39.3 39v184c0 21.5 17.6 39 39.3 39h145.1c21.7 0 39.3-17.5 39.3-39v-184c0-21.6-17.7-39-39.3-39z m-15.1 208H268.8v-154h114.9v154z" p-id="2585"></path></svg>