<?xml version="1.0" standalone="no"?><!DOCTYPE svg PUBLIC "-//W3C//DTD SVG 1.1//EN" "http://www.w3.org/Graphics/SVG/1.1/DTD/svg11.dtd"><svg t="1590548169444" class="icon" viewBox="0 0 1024 1024" version="1.1" xmlns="http://www.w3.org/2000/svg" p-id="16095" xmlns:xlink="http://www.w3.org/1999/xlink" width="200" height="200"><defs><style type="text/css"></style></defs><path d="M160 85.333333h384a32 32 0 0 1 4.352 63.701334l-4.352 0.298666h-384a10.666667 10.666667 0 0 0-10.368 8.234667L149.333333 160v682.666667a10.666667 10.666667 0 0 0 8.234667 10.368L160 853.333333h682.666667a10.666667 10.666667 0 0 0 10.368-8.234666L853.333333 842.666667v-384a32 32 0 0 1 63.701334-4.352l0.298666 4.352v384a74.666667 74.666667 0 0 1-68.522666 74.410666l-6.144 0.256h-682.666667a74.666667 74.666667 0 0 1-74.410667-68.522666L85.333333 842.666667v-682.666667a74.666667 74.666667 0 0 1 68.522667-74.410667L160 85.333333h384z m633.344 9.386667l90.496 90.496a32 32 0 0 1 0 45.226667l-422.4 422.4a32 32 0 0 1-22.613333 9.386666h-90.453334a32 32 0 0 1-32-32v-90.538666a32 32 0 0 1 9.344-22.613334l422.4-422.4a32 32 0 0 1 45.226667 0z m-105.6 150.826667L380.330667 552.96v45.226667h45.226666l307.413334-307.413334-45.226667-45.226666z m82.986667-82.944l-37.76 37.674666 45.269333 45.269334 37.717333-37.717334-45.226666-45.226666z" p-id="16096"></path></svg>