<?xml version="1.0" standalone="no"?><!DOCTYPE svg PUBLIC "-//W3C//DTD SVG 1.1//EN" "http://www.w3.org/Graphics/SVG/1.1/DTD/svg11.dtd"><svg t="1592208668986" class="icon" viewBox="0 0 1024 1024" version="1.1" xmlns="http://www.w3.org/2000/svg" p-id="1334" xmlns:xlink="http://www.w3.org/1999/xlink" width="200" height="200"><defs><style type="text/css"></style></defs><path d="M1019.345455 1024c-4.654545-6.981818-9.309091-16.290909-16.29091-20.945455C674.909091 674.909091 346.763636 346.763636 18.618182 20.945455 13.963636 13.963636 6.981818 9.309091 0 4.654545 6.981818 2.327273 13.963636 0 20.945455 0H1024v1003.054545c0 6.981818-2.327273 13.963636-4.654545 20.945455zM702.836364 463.127273c65.163636-65.163636 130.327273-130.327273 195.490909-193.163637-6.981818-9.309091-16.290909-18.618182-27.927273-34.909091-55.854545 58.181818-109.381818 114.036364-165.236364 169.89091-32.581818-32.581818-62.836364-62.836364-90.763636-93.09091l-30.254545 30.254546c39.563636 39.563636 79.127273 81.454545 118.690909 121.018182z" p-id="1335"></path></svg>