<?xml version="1.0" standalone="no"?><!DOCTYPE svg PUBLIC "-//W3C//DTD SVG 1.1//EN" "http://www.w3.org/Graphics/SVG/1.1/DTD/svg11.dtd"><svg t="1590547806259" class="icon" viewBox="0 0 1024 1024" version="1.1" xmlns="http://www.w3.org/2000/svg" p-id="12851" xmlns:xlink="http://www.w3.org/1999/xlink" width="200" height="200"><defs><style type="text/css"></style></defs><path d="M218.026667 704V288.426667a21.333333 21.333333 0 0 1 21.333333-21.333334h126.293333V211.413333H213.333333a51.626667 51.626667 0 0 0-51.626666 51.626667v466.773333A51.626667 51.626667 0 0 0 213.333333 781.44h187.52V725.333333h-162.133333a21.333333 21.333333 0 0 1-20.693333-21.333333zM730.666667 725.333333h-81.28v-82.346666a27.733333 27.733333 0 0 0-27.733334-27.733334 27.733333 27.733333 0 0 0-27.733333 27.733334V725.333333H512a27.733333 27.733333 0 0 0-27.733333 27.733334 27.733333 27.733333 0 0 0 27.733333 27.733333h81.28v81.493333a27.733333 27.733333 0 0 0 27.733333 27.733334 27.733333 27.733333 0 0 0 27.733334-27.733334v-82.56h81.28a27.733333 27.733333 0 0 0 27.733333-27.733333A27.733333 27.733333 0 0 0 730.666667 725.333333z" p-id="12852"></path><path d="M365.013333 106.666667m59.733334 0l393.6 0q59.733333 0 59.733333 59.733333l0 164.906667q0 59.733333-59.733333 59.733333l-393.6 0q-59.733333 0-59.733334-59.733333l0-164.906667q0-59.733333 59.733334-59.733333Z" p-id="12853"></path></svg>