<?xml version="1.0" standalone="no"?><!DOCTYPE svg PUBLIC "-//W3C//DTD SVG 1.1//EN" "http://www.w3.org/Graphics/SVG/1.1/DTD/svg11.dtd"><svg t="1590547862197" class="icon" viewBox="0 0 1024 1024" version="1.1" xmlns="http://www.w3.org/2000/svg" p-id="15244" xmlns:xlink="http://www.w3.org/1999/xlink" width="200" height="200"><defs><style type="text/css"></style></defs><path d="M900.48 512H376.746667a79.786667 79.786667 0 0 0-80 79.573333v128H177.493333v-277.333333h507.093334a42.666667 42.666667 0 0 0 42.666666-42.666667V192a42.666667 42.666667 0 0 0-42.666666-42.666667h-597.333334a42.666667 42.666667 0 0 0-42.666666 42.666667v207.786667a42.666667 42.666667 0 0 0 42.666666 42.666666h4.906667v278.4a85.333333 85.333333 0 0 0 85.333333 85.333334H298.666667A79.786667 79.786667 0 0 0 376.746667 874.666667H490.666667a42.666667 42.666667 0 0 0 0-85.333334h-108.586667v-192H896v42.666667a42.666667 42.666667 0 0 0 85.333333 0v-47.573333A79.786667 79.786667 0 0 0 900.48 512z" p-id="15245"></path><path d="M807.04 713.813333h-32v-33.92a42.666667 42.666667 0 0 0-85.333333 0v33.92h-35.413334a42.666667 42.666667 0 1 0 0 85.333334h35.413334V832a42.666667 42.666667 0 1 0 85.333333 0v-32.853333h32a42.666667 42.666667 0 0 0 0-85.333334z" p-id="15246"></path></svg>