<?xml version="1.0" standalone="no"?><!DOCTYPE svg PUBLIC "-//W3C//DTD SVG 1.1//EN" "http://www.w3.org/Graphics/SVG/1.1/DTD/svg11.dtd"><svg t="1590506090932" class="icon" viewBox="0 0 1024 1024" version="1.1" xmlns="http://www.w3.org/2000/svg" p-id="2977" xmlns:xlink="http://www.w3.org/1999/xlink" width="200" height="200"><defs><style type="text/css"></style></defs><path d="M626.58881 643.237184h217.578752c16.698369 0 30.197051-13.498682 30.197051-30.197051V395.461381c0-16.698369-13.498682-30.197051-30.197051-30.197051H626.58881c-16.698369 0-30.197051 13.498682-30.197051 30.197051v217.578752c0 16.698369 13.498682 30.197051 30.197051 30.197051zM544.296846 854.416561H374.913387c-11.898838 0-21.39791-9.599063-21.39791-21.39791V556.145689c0-11.898838 9.599063-21.39791 21.39791-21.39791h169.383459c11.898838 0 21.39791-9.599063 21.39791-21.397911v-17.998242c0-11.898838-9.599063-21.39791-21.39791-21.397911H374.913387c-11.898838 0-21.39791-9.599063-21.39791-21.39791V278.072844h82.791915c16.698369 0 30.197051-13.498682 30.197051-30.197051V30.197051C466.504443 13.498682 453.005761 0 436.307392 0H218.62865c-16.698369 0-30.197051 13.498682-30.197052 30.197051v217.578752c0 16.698369 13.498682 30.197051 30.197052 30.197051h73.892783v174.28298c0 11.898838-9.599063 21.39791-21.39791 21.397911H170.933307c-11.898838 0-21.39791 9.599063-21.39791 21.39791v17.998242c0 11.898838 9.599063 21.39791 21.39791 21.397911h100.190216c11.898838 0 21.39791 9.599063 21.39791 21.39791V893.812714c0 11.898838 9.599063 21.39791 21.397911 21.39791h230.277512c11.898838 0 21.39791-9.599063 21.39791-21.39791v-17.998243c0.09999-11.898838-9.499072-21.39791-21.29792-21.39791zM735.378186 745.827165c-76.792501 0-139.086417 62.293917-139.086418 139.086418s62.293917 139.086417 139.086418 139.086417S874.464603 961.706083 874.464603 884.913583c0-76.892491-62.293917-139.086417-139.086417-139.086418z m85.29167 138.986427c0 7.799238-6.399375 14.198613-14.198613 14.198614h-56.794454V955.90665c0 7.799238-6.399375 14.198613-14.198613 14.198613s-14.198613-6.399375-14.198613-14.198613v-56.794454h-56.794454c-7.799238 0-14.198613-6.399375-14.198614-14.198613 0-7.799238 6.399375-14.198613 14.198614-14.198614h56.794454V813.920516c0-7.799238 6.399375-14.198613 14.198613-14.198614s14.198613 6.399375 14.198613 14.198614v56.794453h56.794454c7.799238-0.09999 14.198613 6.299385 14.198613 14.098623z" p-id="2978"></path></svg>